<?xml version="1.0" standalone="no"?>
<!DOCTYPE svg PUBLIC "-//W3C//DTD SVG 20010904//EN"
 "http://www.w3.org/TR/2001/REC-SVG-20010904/DTD/svg10.dtd">
<svg version="1.0" xmlns="http://www.w3.org/2000/svg"
 width="846.000000pt" height="846.000000pt" viewBox="0 0 846.000000 846.000000"
 preserveAspectRatio="xMidYMid meet">

<g transform="translate(0.000000,846.000000) scale(0.100000,-0.100000)"
fill="#000000" stroke="none">
<path d="M3885 8289 c-585 -50 -1127 -217 -1640 -503 -523 -292 -993 -715
-1342 -1206 -383 -541 -628 -1167 -713 -1830 -27 -208 -38 -621 -21 -830 49
-609 211 -1148 505 -1675 187 -336 386 -596 680 -891 295 -294 555 -493 891
-680 621 -346 1268 -514 1985 -514 717 0 1364 168 1985 514 336 187 596 386
891 680 294 295 493 555 680 891 440 790 601 1666 473 2585 -95 683 -398 1380
-845 1940 -138 174 -470 506 -644 644 -405 323 -883 573 -1390 725 -248 75
-524 125 -825 151 -141 12 -527 11 -670 -1z m-1086 -1573 c135 -35 243 -121
302 -242 29 -58 34 -80 37 -159 3 -66 0 -108 -12 -148 -24 -83 -90 -173 -163
-223 l-61 -42 65 -28 c74 -31 168 -112 206 -177 74 -125 76 -321 5 -461 -59
-118 -159 -208 -272 -246 -96 -31 -244 -40 -733 -40 l-443 0 0 896 0 896 503
-5 c428 -3 511 -6 566 -21z m1081 -136 l0 -160 -170 0 -170 0 0 160 0 160 170
0 170 0 0 -160z m682 -311 l3 -471 198 226 197 226 211 0 212 0 -44 -47 c-24
-27 -122 -133 -219 -237 -96 -104 -174 -192 -173 -196 1 -4 106 -188 233 -408
126 -221 230 -403 230 -406 0 -3 -82 -6 -182 -6 l-183 0 -159 285 c-87 157
-162 287 -166 290 -4 2 -41 -34 -83 -80 l-77 -84 0 -205 0 -206 -170 0 -170 0
0 895 0 895 170 0 170 0 2 -471z m1702 -4 c284 -60 443 -284 463 -647 l6 -118
-433 0 -433 0 7 -42 c19 -122 63 -195 143 -240 132 -75 278 -34 332 92 12 27
23 50 24 50 24 -1 329 -59 333 -63 3 -3 -9 -35 -26 -72 -41 -85 -140 -192
-217 -233 -105 -55 -162 -67 -323 -66 -129 0 -154 3 -225 27 -144 48 -251 140
-316 272 -62 127 -74 186 -74 370 0 183 18 265 82 387 70 134 222 252 366 283
83 18 206 18 291 0z m-2384 -665 l0 -650 -170 0 -170 0 0 650 0 650 170 0 170
0 0 -650z m2915 -2420 l0 -1315 -2560 0 -2560 0 -3 1305 c-1 718 0 1311 3
1318 3 10 521 12 2562 10 l2558 -3 0 -1315z"/>
<path d="M2100 6235 l0 -207 263 4 c222 3 268 7 302 21 84 37 125 99 125 187
0 88 -35 141 -115 177 -34 15 -78 18 -307 21 l-268 4 0 -207z"/>
<path d="M2100 5490 l0 -242 288 5 c324 5 343 8 408 73 91 90 80 262 -20 339
-66 50 -109 57 -403 62 l-273 5 0 -242z"/>
<path d="M6034 5997 c-89 -43 -154 -147 -154 -248 l0 -39 256 0 256 0 -7 52
c-22 158 -104 245 -238 255 -51 3 -71 0 -113 -20z"/>
<path d="M2090 3175 l0 -895 169 0 169 0 5 403 c5 442 9 477 67 562 78 114
284 136 368 41 48 -55 52 -96 52 -571 l0 -435 176 0 175 0 -3 498 c-4 484 -4
499 -26 564 -38 114 -115 194 -229 239 -50 20 -76 23 -183 23 -107 0 -133 -3
-179 -22 -60 -25 -127 -69 -183 -120 l-38 -34 0 321 0 321 -170 0 -170 0 0
-895z"/>
<path d="M5120 3175 l0 -895 165 0 165 0 0 86 0 86 54 -54 c156 -156 381 -192
576 -93 83 42 189 154 233 245 62 131 72 182 72 390 0 148 -4 198 -19 250 -31
113 -74 189 -152 267 -115 117 -229 160 -401 151 -78 -4 -102 -10 -165 -40
-40 -19 -97 -56 -125 -82 l-53 -48 0 316 0 316 -175 0 -175 0 0 -895z m711
159 c72 -22 138 -87 168 -167 45 -124 48 -344 5 -470 -19 -57 -83 -131 -138
-160 -56 -29 -154 -29 -213 1 -125 65 -182 192 -183 405 0 222 71 356 208 393
64 17 89 17 153 -2z"/>
<path d="M3612 3083 c4 -485 4 -500 26 -565 54 -162 185 -255 372 -266 48 -2
111 1 143 8 86 18 191 74 258 140 l59 58 0 -89 0 -89 160 0 160 0 0 650 0 650
-170 0 -170 0 0 -272 c-1 -150 -5 -346 -9 -436 -8 -147 -12 -168 -36 -218 -83
-169 -340 -192 -417 -37 -23 48 -23 49 -26 506 l-3 457 -175 0 -175 0 3 -497z"/>
</g>
</svg>
